<?xml version="1.0" encoding="UTF-8"?><svg id="a" xmlns="http://www.w3.org/2000/svg" viewBox="0 0 841.89 595.28"><defs><style>.b{fill:#fff;}</style></defs><g><g><path class="b" d="M293.08,360.35v8.21h-2.48v-8.21l-9.49-15.53h2.68l8.14,13.33,8.14-13.33h2.51l-9.49,15.53Z"/><path class="b" d="M293.58,369.05h-3.48v-8.56l-9.89-16.17h3.85l7.86,12.87,7.86-12.87h3.68l-9.88,16.17v8.56Zm-2.48-1h1.48v-7.85l9.1-14.89h-1.34l-8.42,13.79-8.42-13.79h-1.51l9.1,14.89v7.85Z"/></g><g><path class="b" d="M317.92,367.18c-1.91-1.05-3.4-2.49-4.48-4.32-1.07-1.83-1.61-3.89-1.61-6.17s.54-4.34,1.61-6.17c1.07-1.83,2.57-3.27,4.48-4.32,1.91-1.05,4.04-1.58,6.39-1.58s4.47,.52,6.36,1.56c1.89,1.04,3.37,2.48,4.46,4.32,1.08,1.84,1.63,3.91,1.63,6.19s-.54,4.35-1.63,6.19c-1.09,1.84-2.57,3.28-4.46,4.32-1.89,1.04-4.01,1.56-6.36,1.56s-4.48-.53-6.39-1.58Zm11.48-1.93c1.51-.85,2.7-2.02,3.56-3.53,.86-1.5,1.29-3.18,1.29-5.03s-.43-3.53-1.29-5.03c-.86-1.5-2.05-2.68-3.56-3.53-1.51-.85-3.21-1.27-5.09-1.27s-3.58,.42-5.1,1.27c-1.53,.85-2.72,2.02-3.59,3.53s-1.31,3.18-1.31,5.03,.44,3.53,1.31,5.03c.87,1.5,2.07,2.68,3.59,3.53,1.53,.85,3.23,1.27,5.1,1.27s3.57-.42,5.09-1.27Z"/><path class="b" d="M324.31,369.26c-2.42,0-4.66-.55-6.63-1.64h0c-1.98-1.09-3.55-2.61-4.67-4.51-1.11-1.9-1.68-4.06-1.68-6.42s.56-4.52,1.68-6.42c1.12-1.9,2.69-3.42,4.67-4.51,1.98-1.09,4.21-1.64,6.63-1.64s4.64,.55,6.6,1.62c1.96,1.08,3.52,2.6,4.65,4.51,1.13,1.91,1.7,4.08,1.7,6.44s-.57,4.53-1.7,6.44-2.69,3.43-4.65,4.51c-1.95,1.08-4.17,1.62-6.6,1.62Zm0-24.14c-2.25,0-4.32,.51-6.15,1.52-1.82,1-3.26,2.39-4.29,4.14-1.02,1.74-1.54,3.74-1.54,5.92s.52,4.17,1.54,5.92c1.02,1.75,2.47,3.14,4.29,4.14h0c1.83,1.01,3.89,1.52,6.15,1.52s4.31-.5,6.12-1.5c1.8-.99,3.24-2.38,4.27-4.14,1.03-1.76,1.56-3.75,1.56-5.93s-.52-4.18-1.56-5.93c-1.03-1.75-2.47-3.15-4.27-4.14-1.8-.99-3.86-1.5-6.12-1.5Zm0,21.9c-1.95,0-3.75-.45-5.35-1.33-1.6-.89-2.87-2.14-3.78-3.71-.91-1.57-1.37-3.35-1.37-5.29s.46-3.71,1.37-5.29c.91-1.58,2.18-2.82,3.78-3.71,1.59-.88,3.39-1.33,5.35-1.33s3.75,.45,5.33,1.33c1.59,.89,2.85,2.14,3.75,3.71,.9,1.57,1.35,3.35,1.35,5.28s-.46,3.71-1.35,5.28c-.9,1.58-2.16,2.83-3.75,3.71-1.58,.89-3.38,1.33-5.33,1.33Zm0-19.67c-1.78,0-3.42,.41-4.86,1.21-1.44,.8-2.58,1.92-3.4,3.34-.82,1.42-1.24,3.03-1.24,4.78s.42,3.37,1.24,4.78c.82,1.42,1.96,2.54,3.4,3.34,1.44,.8,3.08,1.21,4.86,1.21s3.41-.41,4.84-1.21h0c1.43-.8,2.56-1.92,3.37-3.34,.81-1.42,1.22-3.03,1.22-4.79s-.41-3.37-1.22-4.79c-.81-1.42-1.94-2.54-3.37-3.34-1.43-.8-3.06-1.21-4.84-1.21Z"/></g><g><path class="b" d="M367.57,356.69h2.41v9.05c-1.11,.97-2.42,1.72-3.93,2.24s-3.11,.78-4.78,.78c-2.37,0-4.51-.52-6.41-1.56-1.9-1.04-3.39-2.48-4.48-4.32-1.08-1.84-1.63-3.9-1.63-6.19s.54-4.35,1.63-6.19c1.08-1.84,2.58-3.28,4.48-4.32,1.9-1.04,4.05-1.56,6.44-1.56,1.81,0,3.47,.29,4.98,.86,1.51,.58,2.79,1.43,3.83,2.56l-1.56,1.59c-1.88-1.85-4.26-2.78-7.15-2.78-1.92,0-3.66,.42-5.2,1.27-1.55,.85-2.76,2.02-3.64,3.53s-1.32,3.18-1.32,5.03,.44,3.53,1.32,5.02c.88,1.49,2.09,2.67,3.63,3.53,1.54,.86,3.27,1.29,5.19,1.29,2.44,0,4.51-.61,6.2-1.83v-8Z"/><path class="b" d="M361.27,369.26c-2.45,0-4.68-.54-6.65-1.62-1.97-1.08-3.54-2.6-4.67-4.51-1.13-1.91-1.7-4.08-1.7-6.44s.57-4.53,1.7-6.44c1.12-1.91,2.7-3.43,4.67-4.51,1.97-1.08,4.21-1.62,6.68-1.62,1.86,0,3.6,.3,5.16,.9,1.58,.6,2.93,1.51,4.02,2.69l.32,.35-2.24,2.29-.36-.35c-1.77-1.75-4.06-2.63-6.8-2.63-1.83,0-3.5,.41-4.96,1.21-1.46,.8-2.62,1.92-3.45,3.34-.83,1.42-1.25,3.03-1.25,4.78s.42,3.36,1.25,4.76,1.99,2.53,3.44,3.34c1.45,.81,3.12,1.22,4.94,1.22,2.22,0,4.14-.54,5.7-1.59v-8.24h3.41v9.78l-.17,.15c-1.15,1.01-2.53,1.8-4.1,2.33-1.56,.54-3.22,.81-4.94,.81Zm.03-24.14c-2.3,0-4.38,.5-6.2,1.5-1.81,.99-3.25,2.38-4.29,4.14-1.03,1.76-1.56,3.75-1.56,5.93s.52,4.18,1.56,5.93c1.03,1.75,2.48,3.15,4.29,4.14,1.82,.99,3.89,1.5,6.17,1.5,1.61,0,3.16-.25,4.62-.75,1.37-.47,2.58-1.14,3.6-2v-8.32h-1.41v7.76l-.21,.15c-1.77,1.28-3.96,1.93-6.5,1.93-2,0-3.83-.46-5.43-1.35-1.61-.9-2.89-2.15-3.81-3.71s-1.39-3.34-1.39-5.27,.47-3.71,1.39-5.29c.92-1.58,2.21-2.82,3.84-3.71,1.62-.88,3.45-1.33,5.44-1.33,2.83,0,5.23,.87,7.14,2.58l.88-.89c-.92-.9-2.03-1.6-3.31-2.09-1.45-.55-3.07-.83-4.81-.83Z"/></g><g><path class="b" d="M400.43,362.22h-13.22l-2.85,6.34h-2.61l10.85-23.73h2.48l10.85,23.73h-2.64l-2.85-6.34Zm-.92-2.03l-5.7-12.75-5.7,12.75h11.39Z"/><path class="b" d="M406.7,369.05h-3.75l-2.85-6.34h-12.58l-2.85,6.34h-3.71l11.31-24.73h3.12l11.31,24.73Zm-3.1-1h1.54l-10.39-22.73h-1.83l-10.39,22.73h1.51l2.85-6.34h13.87l2.85,6.34Zm-3.32-7.37h-12.94l6.47-14.47,6.47,14.47Zm-11.39-1h9.85l-4.92-11.02-4.92,11.02Z"/></g><g><path class="b" d="M439.64,367.2c-1.89-1.04-3.37-2.48-4.44-4.32-1.07-1.84-1.61-3.9-1.61-6.19s.54-4.35,1.61-6.19c1.07-1.84,2.56-3.28,4.46-4.32,1.9-1.04,4.02-1.56,6.37-1.56,1.76,0,3.39,.29,4.88,.88,1.49,.59,2.76,1.45,3.8,2.58l-1.59,1.59c-1.85-1.88-4.19-2.81-7.02-2.81-1.88,0-3.58,.43-5.12,1.29-1.54,.86-2.74,2.03-3.61,3.53-.87,1.49-1.31,3.17-1.31,5.02s.44,3.53,1.31,5.02c.87,1.49,2.07,2.67,3.61,3.53,1.54,.86,3.24,1.29,5.12,1.29,2.85,0,5.19-.95,7.02-2.85l1.59,1.59c-1.04,1.13-2.31,1.99-3.81,2.59-1.5,.6-3.14,.9-4.9,.9-2.35,0-4.47-.52-6.36-1.56Z"/><path class="b" d="M446,369.26c-2.42,0-4.64-.55-6.6-1.62h0c-1.96-1.08-3.52-2.6-4.63-4.51s-1.68-4.08-1.68-6.44,.56-4.53,1.68-6.44c1.11-1.91,2.68-3.43,4.65-4.51,1.97-1.08,4.19-1.62,6.61-1.62,1.82,0,3.52,.31,5.07,.92,1.55,.61,2.89,1.52,3.98,2.7l.32,.35-2.29,2.29-.35-.36c-1.75-1.77-3.99-2.67-6.66-2.67-1.78,0-3.42,.41-4.88,1.22-1.45,.81-2.6,1.94-3.42,3.34s-1.24,3.01-1.24,4.77,.42,3.36,1.24,4.77c.82,1.41,1.97,2.53,3.42,3.34,1.45,.81,3.09,1.22,4.88,1.22,2.69,0,4.93-.91,6.66-2.69l.35-.37,2.29,2.29-.32,.35c-1.09,1.18-2.43,2.09-4,2.72-1.56,.62-3.27,.93-5.08,.93Zm-6.12-2.5c1.8,.99,3.86,1.5,6.12,1.5,1.69,0,3.28-.29,4.71-.86,1.27-.5,2.38-1.22,3.3-2.12l-.89-.89c-1.87,1.75-4.22,2.64-7.02,2.64-1.96,0-3.76-.46-5.36-1.35-1.61-.9-2.89-2.15-3.8-3.71-.91-1.56-1.37-3.33-1.37-5.27s.46-3.71,1.37-5.27c.91-1.56,2.19-2.81,3.8-3.71,1.61-.9,3.41-1.35,5.36-1.35,2.77,0,5.13,.88,7.01,2.61l.9-.9c-.92-.9-2.02-1.61-3.28-2.11-1.43-.56-3.01-.85-4.7-.85-2.25,0-4.32,.5-6.13,1.5-1.81,.99-3.25,2.38-4.27,4.14-1.02,1.76-1.54,3.75-1.54,5.94s.52,4.18,1.54,5.94c1.02,1.75,2.45,3.15,4.25,4.14h0Z"/></g><g><path class="b" d="M482.82,362.22h-13.22l-2.85,6.34h-2.61l10.85-23.73h2.48l10.85,23.73h-2.64l-2.85-6.34Zm-.92-2.03l-5.7-12.75-5.7,12.75h11.39Z"/><path class="b" d="M489.09,369.05h-3.75l-2.85-6.34h-12.58l-2.85,6.34h-3.71l11.31-24.73h3.12l11.31,24.73Zm-3.1-1h1.54l-10.39-22.73h-1.83l-10.39,22.73h1.51l2.85-6.34h13.87l2.85,6.34Zm-3.32-7.37h-12.93l6.47-14.47,6.47,14.47Zm-11.39-1h9.85l-4.92-11.02-4.92,11.02Z"/></g><g><path class="b" d="M525.37,344.82v23.73h-2.41v-18.99l-9.32,15.97h-1.19l-9.32-15.87v18.89h-2.41v-23.73h2.07l10.31,17.6,10.21-17.6h2.07Z"/><path class="b" d="M525.87,369.05h-3.41v-17.64l-8.54,14.62h-1.76l-8.54-14.53v17.55h-3.41v-24.73h2.85l10.02,17.1,9.92-17.1h2.86v24.73Zm-2.41-1h1.41v-22.73h-1.28l-10.49,18.09-10.6-18.09h-1.28v22.73h1.41v-20.22l10.11,17.21h.61l10.11-17.32v20.33Z"/></g><g><path class="b" d="M557.58,346.99c1.72,1.45,2.58,3.44,2.58,5.97s-.86,4.52-2.58,5.95c-1.72,1.44-4.09,2.15-7.12,2.15h-6.37v7.49h-2.51v-23.73h8.88c3.03,0,5.4,.72,7.12,2.17Zm-1.8,10.32c1.24-1.03,1.86-2.48,1.86-4.36s-.62-3.4-1.86-4.43c-1.24-1.03-3.04-1.54-5.39-1.54h-6.31v11.87h6.31c2.35,0,4.15-.51,5.39-1.54Z"/><path class="b" d="M544.59,369.05h-3.51v-24.73h9.38c3.13,0,5.64,.77,7.44,2.29,1.83,1.54,2.75,3.68,2.75,6.35s-.93,4.81-2.76,6.33c-1.8,1.5-4.3,2.27-7.44,2.27h-5.87v7.49Zm-2.51-1h1.51v-7.49h6.87c2.9,0,5.18-.68,6.8-2.04,1.61-1.35,2.4-3.17,2.4-5.57s-.79-4.22-2.4-5.58c-1.62-1.36-3.91-2.05-6.8-2.05h-8.38v22.73Zm8.32-8.7h-6.81v-12.87h6.81c2.46,0,4.38,.56,5.71,1.66,1.36,1.12,2.05,2.74,2.05,4.81s-.69,3.62-2.05,4.74h0c-1.33,1.1-3.25,1.66-5.71,1.66Zm-5.81-1h5.81c2.22,0,3.93-.48,5.07-1.43h0c1.13-.94,1.68-2.24,1.68-3.97s-.55-3.1-1.68-4.04c-1.15-.95-2.85-1.43-5.07-1.43h-5.81v10.87Z"/></g></g><g><g><path class="b" d="M170.61,297.97h-36.1v-.6c3.7,0,4-2.3,4-4.3v-53.1c0-1.9-.3-4.3-4-4.3v-.5h13.3v.5c-3.7,0-4,2.4-4,4.3v53.3c0,1.8,.3,3.4,3.3,3.7h19.4c4.1,0,4.75-1.57,6.75-7.37h.6q-2.45,6.27-3.25,8.37Z"/><path class="b" d="M170.95,298.47h-36.95v-1.6h.5c3.23,0,3.5-1.8,3.5-3.8v-53.1c0-1.84-.27-3.8-3.5-3.8h-.5v-1.5h14.3v1.5h-.5c-3.23,0-3.5,1.96-3.5,3.8v53.3c0,1.65,.21,2.94,2.85,3.2h19.35c3.72,0,4.28-1.23,6.28-7.03l.12-.34h1.69l-.27,.68q-2.45,6.26-3.25,8.36l-.12,.32Zm-34.16-1h33.47c.21-.54,.36-.94,.54-1.41-.96,.98-2.24,1.41-4.29,1.41h-19.4c-3.35-.33-3.8-2.21-3.8-4.2v-53.3c0-1.09,0-3.31,1.99-4.3h-8.28c1.99,.99,1.99,3.21,1.99,4.3v53.1c0,1.13,0,3.47-2.21,4.4Z"/></g><g><path class="b" d="M189,297.47l-.1,.5h-13.4v-.5c4.1,0,5.4-1.7,6.3-4l24.4-53.1-.3-.7c-.8-1.4-1.7-4-6.9-4.1v-.4h7.7s2.8,.1,3.8,2.9l21.9,56.9c.6,1.3,1.3,2.5,5.1,2.5v.5h-14.1v-.5c2.6,0,4.5-.8,3.8-2.4l-2.4-5.9c-2.8-7.2-17.4-16.6-31-18l-9.9,21.6c-1.4,3.6,1.3,4.7,5.1,4.7Zm34-13.5l-16-41.4-12.6,27.4c9.7,1.1,22.5,7,28.6,14Z"/><path class="b" d="M238.01,298.47h-15.1v-1.5h.5c1.69,0,2.97-.35,3.34-.92,.09-.13,.18-.36,0-.78l-2.41-5.91c-2.65-6.81-16.66-16.12-30.23-17.65l-9.75,21.27c-.43,1.11-.44,2-.02,2.62,.61,.9,2.23,1.37,4.66,1.37h.61l-.3,1.5h-14.31v-1.5h.5c3.67,0,4.92-1.35,5.83-3.68l24.32-52.93-.21-.5c-.05-.08-.12-.21-.2-.36-.76-1.42-1.8-3.36-6.25-3.44h-.49v-1.4h8.2c.15,0,3.17,.15,4.27,3.23l21.9,56.89c.49,1.06,1.01,2.18,4.63,2.18h.5v1.5Zm-11.55-1h7.69c-1.25-.51-1.76-1.35-2.2-2.29l-21.91-56.93c-.87-2.45-3.25-2.58-3.35-2.58h-4.13c2.21,.83,3.02,2.34,3.57,3.37,.07,.14,.14,.26,.21,.38l.41,.96-24.49,53.31c-.68,1.75-1.61,3.1-3.46,3.79h6.55c-.83-.3-1.44-.73-1.83-1.31-.62-.91-.65-2.11-.08-3.57l10.06-21.95,.36,.04c14.02,1.44,28.65,11.2,31.42,18.32l2.4,5.89c.34,.78,.14,1.37-.08,1.71-.25,.39-.66,.67-1.13,.87Zm-1.96-11.03l-1.87-2.14c-5.76-6.61-18.18-12.69-28.28-13.83l-.69-.08,13.38-29.1,17.45,45.16Zm-29.35-16.89c9.26,1.24,20.24,6.39,26.5,12.29l-14.68-38-11.82,25.71Z"/></g><g><path class="b" d="M300.9,297.37v.6h-13.3v-.6c3.7,0,4-2.3,4-4.3v-53c0-2-.3-4.3-4-4.3v-.6h13.3v.5c-3.7,0-4,2.4-4,4.3v53.1c0,2,.3,4.3,4,4.3Z"/><path class="b" d="M301.4,298.47h-14.3v-1.6h.5c3.23,0,3.5-1.8,3.5-3.8v-53c0-2-.27-3.8-3.5-3.8h-.5v-1.6h14.3v1.5h-.5c-3.23,0-3.5,1.96-3.5,3.8v53.1c0,2,.27,3.8,3.5,3.8h.5v1.6Zm-11.51-1h8.72c-2.21-.93-2.21-3.27-2.21-4.4v-53.1c0-1.09,0-3.31,1.99-4.3h-8.5c2.21,.93,2.21,3.27,2.21,4.4v53c0,1.13,0,3.47-2.21,4.4Z"/></g><g><path class="b" d="M353.4,236.17h-15.2c-2.3,.5-2.6,2.3-2.6,4v52.9c.1,2,.4,4.3,4.1,4.3v.6h-13.3v-.6c3.7,0,4-2.3,4-4.3v-52.9c0-1.6-.2-3.3-2-4h-15.5c-4.1,0-5.25,3.1-7.15,8.8h-.6c1.4-4.7,3.05-7.7,3.85-9.8h27.4"/><path class="b" d="M340.2,298.47h-14.3v-1.6h.5c3.23,0,3.5-1.8,3.5-3.8v-52.9c0-1.69-.27-2.94-1.6-3.5h-15.4c-3.7,0-4.77,2.75-6.68,8.46l-.11,.34h-1.63l.19-.64c.98-3.28,2.06-5.7,2.93-7.64,.37-.84,.7-1.56,.94-2.19l.12-.32h27.75v1h-27.06c-.23,.57-.51,1.2-.83,1.91,1.05-1.23,2.4-1.91,4.39-1.91l15.68,.03c2.32,.9,2.32,3.31,2.32,4.47v52.9c0,1.13,0,3.47-2.21,4.4h8.7c-2.12-.89-2.23-3.07-2.29-4.38v-52.93c0-1.79,.34-3.91,2.99-4.49h15.31v.99h-15.15c-1.79,.41-2.16,1.7-2.16,3.5v52.9c.1,2.07,.45,3.8,3.6,3.8h.5v1.6Z"/></g><g><path class="b" d="M366.6,297.47l-.1,.5h-13.4v-.5c4.1,0,5.4-1.7,6.3-4l24.4-53.1-.3-.7c-.8-1.4-1.7-4-6.9-4.1v-.4h7.7s2.8,.1,3.8,2.9l21.9,56.9c.6,1.3,1.3,2.5,5.1,2.5v.5h-14.1v-.5c2.6,0,4.5-.8,3.8-2.4l-2.4-5.9c-2.8-7.2-17.4-16.6-31-18l-9.9,21.6c-1.4,3.6,1.3,4.7,5.1,4.7Zm34-13.5l-16-41.4-12.6,27.4c9.7,1.1,22.5,7,28.6,14Z"/><path class="b" d="M415.6,298.47h-15.1v-1.5h.5c1.69,0,2.97-.35,3.34-.92,.09-.13,.18-.36,0-.78l-2.41-5.91c-2.65-6.81-16.66-16.12-30.23-17.65l-9.75,21.27c-.43,1.11-.44,2-.02,2.62,.61,.9,2.23,1.37,4.66,1.37h.61l-.3,1.5h-14.31v-1.5h.5c3.67,0,4.92-1.35,5.83-3.68l24.32-52.93-.21-.5c-.05-.08-.12-.21-.2-.36-.76-1.42-1.8-3.36-6.25-3.44h-.49v-1.4h8.2c.15,0,3.17,.15,4.27,3.23l21.9,56.89c.49,1.06,1.01,2.18,4.63,2.18h.5v1.5Zm-11.55-1h7.69c-1.25-.51-1.76-1.35-2.2-2.29l-21.91-56.93c-.87-2.45-3.25-2.58-3.35-2.58h-4.13c2.21,.83,3.02,2.34,3.57,3.37,.07,.14,.14,.26,.21,.38l.41,.96-24.49,53.31c-.68,1.75-1.61,3.1-3.46,3.79h6.55c-.83-.3-1.44-.73-1.83-1.31-.62-.91-.65-2.11-.08-3.57l10.06-21.95,.36,.04c14.02,1.44,28.65,11.2,31.42,18.32l2.4,5.89c.34,.78,.14,1.37-.08,1.71-.25,.39-.66,.67-1.13,.87Zm-1.96-11.03l-1.87-2.14c-5.76-6.61-18.18-12.69-28.28-13.83l-.69-.08,13.38-29.1,17.45,45.16Zm-29.35-16.89c9.26,1.24,20.24,6.39,26.5,12.29l-14.68-38-11.82,25.71Z"/></g><g><path class="b" d="M456.7,297.27v.7h-13.4v-.6c3.7,0,4-2.3,4-4.3v-53.1c0-2-.3-4.3-4-4.3v-.5h13.4v.5c-3.8,0-4,2.1-4.1,3.9v27.2h31.6v-26.8c0-2-.3-4.3-4-4.3v-.5h13.3v.6c-3.7,0-4,2.1-4,4v54.3c.1,1.7,.5,3.3,4,3.3v.6h-13.3v-.6c3.7,0,4-2.3,4-4.3v-25.1h-31.6v25.9c.1,1.7,.5,3.4,4.1,3.4Z"/><path class="b" d="M494,298.47h-14.3v-1.6h.5c3.23,0,3.5-1.8,3.5-3.8v-24.6h-30.6v25.4c.09,1.57,.43,2.9,3.6,2.9h.5v1.7h-14.4v-1.6h.5c3.23,0,3.5-1.8,3.5-3.8v-53.1c0-2-.27-3.8-3.5-3.8h-.5v-1.5h14.4v1.5h-.5c-3.41,0-3.51,1.74-3.6,3.43v26.67h30.6v-26.3c0-2-.27-3.8-3.5-3.8h-.5v-1.5h14.3v1.6h-.5c-3.23,0-3.5,1.66-3.5,3.5v54.3c.09,1.57,.41,2.8,3.5,2.8h.5v1.6Zm-11.51-1h8.5c-1.57-.64-1.91-1.97-1.99-3.37v-54.33c0-1.66,.3-3.35,2.1-4.1h-8.39c1.99,.99,1.99,3.21,1.99,4.3v27.3h-32.6v-27.7c.07-1.22,.17-3.03,1.96-3.9h-8.25c1.99,.99,1.99,3.21,1.99,4.3v53.1c0,1.13,0,3.47-2.21,4.4h8.85c-1.86-.61-2.25-2.04-2.34-3.57v-26.43h32.6v25.6c0,1.13,0,3.47-2.21,4.4Z"/></g><g><path class="b" d="M525.4,297.97c-16.03,0-29.5-14.3-29.5-31.5s13.47-31.3,29.5-31.3,29.4,14,29.4,31.3-13.47,31.5-29.4,31.5Zm0-1.1c15.39,0,23.41-13.6,23.41-30.3s-8.02-30.1-23.41-30.1-23.52,13.4-23.52,30.1,8.02,30.3,23.52,30.3Z"/><path class="b" d="M525.4,298.47c-16.26,0-30-14.66-30-32s13.46-31.8,30-31.8,29.9,14.27,29.9,31.8-13.69,32-29.9,32Zm0-62.8c-15.99,0-29,13.82-29,30.8s13.28,31,29,31,28.9-14.2,28.9-31-12.96-30.8-28.9-30.8Zm0,61.7c-14.59,0-24.02-12.09-24.02-30.8s9.43-30.6,24.02-30.6,23.91,12.01,23.91,30.6-9.38,30.8-23.91,30.8Zm0-60.4c-13.98,0-23.02,11.62-23.02,29.6s9.03,29.8,23.02,29.8,22.91-11.7,22.91-29.8-8.99-29.6-22.91-29.6Z"/></g><g><path class="b" d="M585.4,297.97c-17.8,0-22.6-12.9-22.6-24.1v-33.9c0-1.9-.3-4.2-4-4.2v-.6h13.3v.5c-3.7,0-4,2.4-4.1,4.4v33.8c0,15.4,4.7,22.7,17.3,22.7s20.5-8.3,20.5-20v-41.4h2.1v41.4c0,13-8.2,21.4-22.5,21.4Z"/><path class="b" d="M585.4,298.47c-20.85,0-23.1-17.21-23.1-24.6v-33.9c0-1.87-.27-3.7-3.5-3.7h-.5v-1.6h14.3v1.5h-.5c-3.15,0-3.49,1.78-3.6,3.93v33.78c0,15.77,4.87,22.2,16.8,22.2s20-7.65,20-19.5v-41.9h3.1v41.9c0,13.51-8.81,21.9-23,21.9Zm-24.29-62.8c2.19,.92,2.19,3.19,2.19,4.3v33.9c0,7.1,2.15,23.6,22.1,23.6,13.78,0,22-7.81,22-20.9v-40.9h-1.1v40.9c0,12.45-8.24,20.5-21,20.5s-17.8-6.94-17.8-23.2v-33.8c.07-1.31,.17-3.44,2.1-4.4h-8.49Z"/></g><g><path class="b" d="M642.4,297.77c-3.8,0-7.6-.6-11-1.7-20-6.8-15.4-16.3-15.4-16.4l.9,.3c-.2,.4,.1,9.5,15.3,14.7,3.5,1.2,7.3,1.9,11,1.9,7.2,0,13.6-2.6,15.3-9,2.5-9.9-8.5-13.9-20.1-18.8-1.2-.6-2.5-1.1-3.7-1.6-13.1-5.6-22.8-12.6-20.3-21.5,2.1-7.6,9.9-10.5,21.7-10.5,23.8,0,20.4,12.8,21,14l-.4,.2c-.6-1.1-5.5-12.8-20.8-12.8-7.1,0-16.5,1-18.1,6.7-2,7.5,7,12.7,19.1,18,1.2,.6,2.5,1.1,3.7,1.6,14.6,5.9,23.8,13.6,20.5,25.1-1.9,6.7-10.1,9.8-18.7,9.8Z"/><path class="b" d="M642.4,298.27c-3.81,0-7.67-.6-11.15-1.72-8.19-2.78-13.35-6.35-15.34-10.61-1.4-2.99-.76-5.41-.41-6.35v-.6l2.11,.7-.26,.52s-.02,8.86,15.02,14c3.58,1.22,7.32,1.87,10.84,1.87,7.96,0,13.36-3.14,14.82-8.63,2.26-8.95-7.12-12.89-17.97-17.44l-1.84-.77c-.94-.47-1.92-.87-2.87-1.26l-.83-.34c-16.1-6.88-22.83-14.11-20.59-22.1,2.02-7.31,9.28-10.87,22.18-10.87,21.09,0,21.32,10.11,21.4,13.44,0,.35,.02,.75,.05,.85l.22,.45-1.28,.63-.23-.42c-.04-.07-.09-.17-.15-.3-3.92-7.89-11.1-12.24-20.21-12.24-10.36,0-16.46,2.19-17.62,6.33-1.82,6.83,5.85,11.73,18.82,17.41,.94,.47,1.92,.87,2.87,1.26l.83,.34c16.98,6.86,23.78,15.27,20.79,25.7-2.12,7.49-11.3,10.16-19.18,10.16Zm-26.09-17.97c-.29,.99-.58,2.9,.5,5.21,1.84,3.95,6.94,7.43,14.75,10.08,3.38,1.09,7.13,1.67,10.84,1.67,7.51,0,16.25-2.48,18.22-9.44,2.87-9.99-3.55-17.77-20.21-24.5l-.82-.34c-.97-.39-1.96-.8-2.91-1.28-11-4.82-21.59-10.23-19.36-18.58,1.32-4.69,7.57-7.07,18.58-7.07,9.13,0,16.4,4.19,20.59,11.82-.09-3.58-.74-12.22-20.39-12.22-12.39,0-19.34,3.31-21.22,10.13-2.08,7.42,4.46,14.26,20.01,20.91l.82,.34c.97,.39,1.96,.8,2.91,1.28l1.81,.76c10.81,4.54,21.03,8.82,18.55,18.61-1.58,5.96-7.34,9.38-15.79,9.38-3.62,0-7.49-.67-11.16-1.93-10.26-3.51-13.75-8.83-14.92-11.69-.52-1.28-.74-2.44-.74-3.13l-.06-.02Z"/></g><g><path class="b" d="M279.98,297.97h-36.1v-.6c3.7,0,4-2.3,4-4.3v-53.1c0-1.9-.3-4.3-4-4.3v-.5h13.3v.5c-3.7,0-4,2.4-4,4.3v53.3c0,1.8,.3,3.4,3.3,3.7h19.4c4.1,0,4.75-1.57,6.75-7.37h.6q-2.45,6.27-3.25,8.37Z"/><path class="b" d="M280.32,298.47h-36.95v-1.6h.5c3.23,0,3.5-1.8,3.5-3.8v-53.1c0-1.84-.27-3.8-3.5-3.8h-.5v-1.5h14.3v1.5h-.5c-3.23,0-3.5,1.96-3.5,3.8v53.3c0,1.65,.21,2.94,2.85,3.2h19.35c3.72,0,4.27-1.23,6.27-7.03l.12-.34h1.69l-.27,.68q-2.45,6.26-3.25,8.36l-.12,.32Zm-34.16-1h33.47c.21-.54,.36-.95,.54-1.41-.96,.98-2.24,1.41-4.29,1.41h-19.4c-3.35-.33-3.8-2.21-3.8-4.2v-53.3c0-1.09,0-3.31,1.99-4.3h-8.28c1.99,.99,1.99,3.21,1.99,4.3v53.1c0,1.13,0,3.47-2.21,4.4Z"/></g><g><path class="b" d="M329.59,235.17h27.4c.8,2.1,2.45,5.1,3.85,9.8h-.6c-1.9-5.7-3.05-8.8-7.15-8.8h-15.5c-1.8,.7-2,2.4-2,4m-30.8,7.7"/><path class="b" d="M361.51,245.47h-1.63l-.11-.34c-1.9-5.71-2.98-8.46-6.68-8.46h-15.4c-1.32,.56-1.6,1.81-1.6,3.5h-1c0-1.16,0-3.56,2.32-4.47l.18-.03h15.5c1.99,0,3.34,.69,4.39,1.91-.32-.71-.6-1.34-.83-1.91h-27.06v-1h27.75l.12,.32c.24,.63,.56,1.36,.94,2.19,.87,1.94,1.95,4.36,2.93,7.64l.19,.64Z"/></g><g><path class="b" d="M693.4,267.77h-16.9v25.4c0,1.8,.3,3.7,3.3,3.9h19.63c4.1,0,4.75-1.57,6.75-7.37h.6c-2.45,6.27-2.67,6.17-3.47,8.27h-36.1v-.6c3.7,0,4-2.3,4-4.2v-53.2c0-2-.3-4.3-4-4.3v-.5h36.69q.71,2.13,2.89,8.5l-.6-.03c-1.75-5.88-2.58-7.4-6.68-7.57h-20.5c-2.2,.5-2.5,2.3-2.5,3.9v26.9h16.9"/><path class="b" d="M703.64,298.47h-36.95v-1.6h.5c3.23,0,3.5-1.83,3.5-3.7v-53.2c0-2-.27-3.8-3.5-3.8h-.5v-1.5h37.55l.11,.34q.71,2.13,2.89,8.49l.24,.69-1.69-.07-.1-.34c-1.73-5.8-2.46-7.05-6.22-7.21h-20.42c-1.46,.35-2.06,1.34-2.06,3.4v26.4h16.4v1.9h-16.4v24.9c0,2.03,.46,3.24,2.83,3.4h19.6c3.72,0,4.27-1.23,6.27-7.03l.12-.34h1.69l-.27,.68c-1.52,3.89-2.18,5.33-2.67,6.38-.29,.64-.51,1.1-.81,1.89l-.12,.32Zm-2.68-1h1.99c.15-.38,.28-.69,.42-.99-.63,.52-1.4,.84-2.41,.99Zm-31.46,0h9.48c-2.62-.49-2.99-2.43-2.99-4.3v-53.2c0-.98,0-3.52,2.56-4.3h-8.85c1.99,.99,1.99,3.21,1.99,4.3v53.2c0,1.11,0,3.38-2.19,4.3Zm31.16-61.8c1.57,.22,2.62,.75,3.45,1.76-.21-.62-.37-1.09-.59-1.76h-2.86Z"/></g><g><path class="b" d="M684.83,258.22h1.35v18.02s-.02,.04-.04,.04h-1.28s-.04-.02-.04-.04v-18.02h0Z" transform="translate(418.26 952.75) rotate(-90)"/><path class="b" d="M694.49,268.42h-18.52v-2.35h19.02l.04,.54v1.78l-.54,.04Zm-17.52-1h17.06v-.35h-17.06v.35Z"/></g><g><path class="b" d="M383.42,218.16h1.35v18.02s-.02,.04-.04,.04h-1.28s-.04-.02-.04-.04v-18.02h0Z" transform="translate(156.91 611.3) rotate(-90)"/><path class="b" d="M393.09,228.37h-18.52v-2.35h19.02l.04,.54v1.78l-.54,.04Zm-17.52-1h17.06v-.35h-17.06v.35Z"/></g></g></svg>